<svg width="26" height="26" viewBox="0 0 26 26" fill="none" xmlns="http://www.w3.org/2000/svg">
<g filter="url(#filter0_d_37_149)">
<path d="M20 0H6C4.895 0 4 0.895 4 2V16C4 17.105 4.895 18 6 18H20C21.105 18 22 17.105 22 16V2C22 0.895 21.105 0 20 0ZM10 14H7.477V7H10V14ZM8.694 5.717C7.923 5.717 7.408 5.203 7.408 4.517C7.408 3.831 7.922 3.317 8.779 3.317C9.55 3.317 10.065 3.831 10.065 4.517C10.065 5.203 9.551 5.717 8.694 5.717ZM19 14H16.558V10.174C16.558 9.116 15.907 8.872 15.663 8.872C15.419 8.872 14.605 9.035 14.605 10.174C14.605 10.337 14.605 14 14.605 14H12.082V7H14.605V7.977C14.93 7.407 15.581 7 16.802 7C18.023 7 19 7.977 19 10.174V14Z" fill="#F5F5F5"/>
</g>
<defs>
<filter id="filter0_d_37_149" x="0" y="0" width="26" height="26" filterUnits="userSpaceOnUse" color-interpolation-filters="sRGB">
<feFlood flood-opacity="0" result="BackgroundImageFix"/>
<feColorMatrix in="SourceAlpha" type="matrix" values="0 0 0 0 0 0 0 0 0 0 0 0 0 0 0 0 0 0 127 0" result="hardAlpha"/>
<feOffset dy="4"/>
<feGaussianBlur stdDeviation="2"/>
<feComposite in2="hardAlpha" operator="out"/>
<feColorMatrix type="matrix" values="0 0 0 0 0.966667 0 0 0 0 0.974 0 0 0 0 1 0 0 0 0.2 0"/>
<feBlend mode="normal" in2="BackgroundImageFix" result="effect1_dropShadow_37_149"/>
<feBlend mode="normal" in="SourceGraphic" in2="effect1_dropShadow_37_149" result="shape"/>
</filter>
</defs>
</svg>
