<svg width="26" height="26" viewBox="0 0 26 26" fill="none" xmlns="http://www.w3.org/2000/svg">
<g filter="url(#filter0_d_37_153)">
<path d="M21 9C20.7333 9 20.496 8.904 20.288 8.712C20.0793 8.52067 19.9583 8.28333 19.925 8C19.7083 6.45 19.0543 5.129 17.963 4.037C16.871 2.94567 15.55 2.29167 14 2.075C13.7167 2.04167 13.4793 1.925 13.288 1.725C13.096 1.525 13 1.28333 13 1C13 0.716667 13.1 0.479 13.3 0.287C13.5 0.0956666 13.7333 0.0166666 14 0.05C16.1 0.283333 17.8917 1.14167 19.375 2.625C20.8583 4.10833 21.7167 5.9 21.95 8C21.9833 8.26667 21.904 8.5 21.712 8.7C21.5207 8.9 21.2833 9 21 9ZM16.825 9C16.6083 9 16.4167 8.925 16.25 8.775C16.0833 8.625 15.9583 8.425 15.875 8.175C15.7417 7.69167 15.4877 7.26233 15.113 6.887C14.7377 6.51233 14.3083 6.25833 13.825 6.125C13.575 6.04167 13.375 5.91667 13.225 5.75C13.075 5.58333 13 5.38333 13 5.15C13 4.81667 13.1167 4.54567 13.35 4.337C13.5833 4.129 13.8417 4.05833 14.125 4.125C15.0583 4.34167 15.8627 4.78733 16.538 5.462C17.2127 6.13733 17.6583 6.94167 17.875 7.875C17.9417 8.15833 17.8667 8.41667 17.65 8.65C17.4333 8.88333 17.1583 9 16.825 9ZM20.95 18C18.8 18 16.7043 17.5207 14.663 16.562C12.621 15.604 10.8127 14.3373 9.238 12.762C7.66267 11.1873 6.396 9.379 5.438 7.337C4.47933 5.29567 4 3.2 4 1.05C4 0.75 4.1 0.5 4.3 0.3C4.5 0.0999999 4.75 0 5.05 0H9.1C9.33333 0 9.54167 0.0749999 9.725 0.225C9.90833 0.375 10.0167 0.566667 10.05 0.8L10.7 4.3C10.7333 4.53333 10.7293 4.74567 10.688 4.937C10.646 5.129 10.55 5.3 10.4 5.45L8 7.9C8.7 9.1 9.575 10.225 10.625 11.275C11.675 12.325 12.8333 13.2333 14.1 14L16.45 11.65C16.6 11.5 16.796 11.3873 17.038 11.312C17.2793 11.2373 17.5167 11.2167 17.75 11.25L21.2 11.95C21.4333 12 21.625 12.1123 21.775 12.287C21.925 12.4623 22 12.6667 22 12.9V16.95C22 17.25 21.9 17.5 21.7 17.7C21.5 17.9 21.25 18 20.95 18Z" fill="#F5F5F5"/>
</g>
<defs>
<filter id="filter0_d_37_153" x="0" y="0" width="26" height="26" filterUnits="userSpaceOnUse" color-interpolation-filters="sRGB">
<feFlood flood-opacity="0" result="BackgroundImageFix"/>
<feColorMatrix in="SourceAlpha" type="matrix" values="0 0 0 0 0 0 0 0 0 0 0 0 0 0 0 0 0 0 127 0" result="hardAlpha"/>
<feOffset dy="4"/>
<feGaussianBlur stdDeviation="2"/>
<feComposite in2="hardAlpha" operator="out"/>
<feColorMatrix type="matrix" values="0 0 0 0 0.966667 0 0 0 0 0.974 0 0 0 0 1 0 0 0 0.2 0"/>
<feBlend mode="normal" in2="BackgroundImageFix" result="effect1_dropShadow_37_153"/>
<feBlend mode="normal" in="SourceGraphic" in2="effect1_dropShadow_37_153" result="shape"/>
</filter>
</defs>
</svg>
