<svg width="28" height="28" viewBox="0 0 28 28" fill="none" xmlns="http://www.w3.org/2000/svg">
<g filter="url(#filter0_d_37_151)">
<path d="M14 0C8.47656 0 4 4.47656 4 10C4 15.5234 8.47656 20 14 20C19.5234 20 24 15.5234 24 10C24 4.47656 19.5234 0 14 0ZM14 2C18.4102 2 22 5.58984 22 10C22 10.4688 21.9531 10.9297 21.875 11.375C21.6289 11.3203 21.2656 11.2539 20.8438 11.25C20.5312 11.2461 20.1406 11.2969 19.8125 11.3438C19.9258 10.9961 20 10.6133 20 10.2188C20 9.25781 19.5312 8.36328 18.7812 7.625C18.9883 6.85547 19.1914 5.53516 18.6562 5C17.0742 5 16.1992 6.12891 16.1562 6.1875C15.668 6.07031 15.1641 6 14.625 6C13.9336 6 13.2734 6.125 12.6562 6.3125L12.8438 6.15625C12.8438 6.15625 11.9648 4.9375 10.3438 4.9375C9.77734 5.50781 10.0352 6.95312 10.25 7.6875C9.48438 8.41797 9 9.28125 9 10.2188C9 10.5469 9.07812 10.8594 9.15625 11.1562C8.87891 11.125 7.87891 11.0312 7.46875 11.0312C7.10547 11.0312 6.54297 11.1172 6.09375 11.2188C6.03125 10.8203 6 10.4141 6 10C6 5.58984 9.58984 2 14 2ZM7.46875 11.2812C7.86328 11.2812 9.0625 11.4219 9.21875 11.4375C9.23828 11.4922 9.25781 11.543 9.28125 11.5938C8.85156 11.5547 8.01953 11.4961 7.46875 11.5625C7.10156 11.6055 6.63281 11.7383 6.21875 11.8438C6.1875 11.7188 6.14844 11.5977 6.125 11.4688C6.5625 11.375 7.13672 11.2812 7.46875 11.2812ZM20.8438 11.5C21.2422 11.5039 21.6055 11.5703 21.8438 11.625C21.832 11.6914 21.7969 11.7461 21.7812 11.8125C21.5273 11.7539 21.1094 11.668 20.625 11.6562C20.3906 11.6523 20.0156 11.6641 19.6875 11.6875C19.7031 11.6562 19.707 11.625 19.7188 11.5938C20.0586 11.5469 20.4922 11.4961 20.8438 11.5ZM8.09375 11.7812C8.65625 11.7852 9.18359 11.8242 9.40625 11.8438C9.92969 12.8203 10.9883 13.543 12.625 13.8438C12.2227 14.0664 11.8633 14.3789 11.5938 14.75C11.3594 14.7695 11.1133 14.7812 10.875 14.7812C10.1797 14.7812 9.74609 14.1602 9.375 13.625C9 13.0898 8.53906 13.0312 8.28125 13C8.01953 12.9688 7.92969 13.1172 8.0625 13.2188C8.82422 13.8047 9.09766 14.5 9.40625 15.125C9.68359 15.6875 10.2656 16 10.9062 16H11.0312C11.0117 16.1094 11 16.2109 11 16.3125V17.4062C8.69141 16.4727 6.93359 14.5 6.28125 12.0625C6.69141 11.9609 7.15234 11.8555 7.5 11.8125C7.66016 11.793 7.86328 11.7773 8.09375 11.7812ZM20.625 11.9062C21.0742 11.918 21.4727 12.0039 21.7188 12.0625C21.168 14.1328 19.8086 15.8555 18 16.9062V16.3125C18 15.4609 17.3281 14.3672 16.375 13.8438C17.957 13.5547 18.9883 12.8633 19.5312 11.9375C19.9102 11.9102 20.3555 11.8984 20.625 11.9062ZM14.5 16C14.7734 16 15 16.2266 15 16.5V17.9375C14.6719 17.9805 14.3398 18 14 18V16.5C14 16.2266 14.2266 16 14.5 16ZM12.5 17C12.7734 17 13 17.2266 13 17.5V17.9375C12.6641 17.8945 12.3242 17.832 12 17.75V17.5C12 17.2266 12.2266 17 12.5 17ZM16.5 17C16.7422 17 16.9531 17.1758 17 17.4062C16.6758 17.5391 16.3438 17.6602 16 17.75V17.5C16 17.2266 16.2266 17 16.5 17Z" fill="#F5F5F5"/>
</g>
<defs>
<filter id="filter0_d_37_151" x="0" y="0" width="28" height="28" filterUnits="userSpaceOnUse" color-interpolation-filters="sRGB">
<feFlood flood-opacity="0" result="BackgroundImageFix"/>
<feColorMatrix in="SourceAlpha" type="matrix" values="0 0 0 0 0 0 0 0 0 0 0 0 0 0 0 0 0 0 127 0" result="hardAlpha"/>
<feOffset dy="4"/>
<feGaussianBlur stdDeviation="2"/>
<feComposite in2="hardAlpha" operator="out"/>
<feColorMatrix type="matrix" values="0 0 0 0 0.966667 0 0 0 0 0.974 0 0 0 0 1 0 0 0 0.2 0"/>
<feBlend mode="normal" in2="BackgroundImageFix" result="effect1_dropShadow_37_151"/>
<feBlend mode="normal" in="SourceGraphic" in2="effect1_dropShadow_37_151" result="shape"/>
</filter>
</defs>
</svg>
